<svg width="25" height="25" viewBox="0 0 25 25" fill="none" xmlns="http://www.w3.org/2000/svg">
<path d="M19.7917 3.125H5.20833C4.05208 3.125 3.125 4.05208 3.125 5.20833V9.375H5.20833V5.20833H19.7917V19.7917H5.20833V15.625H3.125V19.7917C3.125 20.3442 3.34449 20.8741 3.73519 21.2648C4.12589 21.6555 4.6558 21.875 5.20833 21.875H19.7917C20.3442 21.875 20.8741 21.6555 21.2648 21.2648C21.6555 20.8741 21.875 20.3442 21.875 19.7917V5.20833C21.875 4.6558 21.6555 4.12589 21.2648 3.73519C20.8741 3.34449 20.3442 3.125 19.7917 3.125ZM10.5 16.2292L11.9792 17.7083L17.1875 12.5L11.9792 7.29167L10.5 8.76042L13.1979 11.4583H3.125V13.5417H13.1979L10.5 16.2292Z" fill="#6F6E6F"/>
</svg>
