<svg width="36" height="36" viewBox="0 0 36 36" fill="none" xmlns="http://www.w3.org/2000/svg">
<path d="M23.6213 14.7223C23.1264 14.4959 22.6766 14.2696 22.1818 14.0432C21.0571 13.5 19.9325 13.002 18.8529 12.4587C17.4584 11.7796 16.1088 11.1006 14.7143 10.4215C13.1848 9.69714 11.6553 9.01806 10.1708 8.29372C10.0359 8.24844 9.90092 8.20317 9.76596 8.24844C9.31611 8.42953 8.82128 8.65589 8.37143 8.88225C8.05654 9.01806 7.74165 9.15388 7.47174 9.28969C6.707 9.65187 5.94225 10.0593 5.17751 10.4215V10.4668C6.88694 11.3722 8.59636 12.2324 10.3508 13.1378C12.0152 13.9979 13.7246 14.8581 15.3891 15.673C15.8389 15.8994 16.3337 16.1257 16.7836 16.3521C16.9185 16.4426 17.0985 16.6237 17.0985 16.7595C17.0985 18.2988 17.0985 19.8833 17.0985 21.4225C17.0535 23.9577 16.9635 26.4929 16.9185 29.0282C16.8736 31.1559 16.7836 33.329 16.6936 35.4567C16.6936 35.6831 16.6486 35.9095 16.3337 35.7736C15.2541 35.2304 14.2195 34.6871 13.1398 34.1891C12.1951 33.7364 11.2055 33.329 10.2608 32.831C9.09119 32.2425 7.92159 31.6086 6.75198 31.0201C5.31247 30.341 3.82797 29.662 2.38846 28.9829C1.80365 28.8471 1.35381 28.666 0.948943 28.3944C0.769004 28.2585 0.634049 27.9869 0.634049 27.8058C0.589065 26.9004 0.634049 25.995 0.589065 25.0895C0.54408 22.8712 0.499095 20.6529 0.409125 18.4346C0.409125 17.846 0.409125 17.3028 0.364141 16.7143C0.319156 14.9487 0.274171 13.1831 0.184201 11.4175C0.139217 10.6026 0.0492471 9.78768 0.00426232 8.92752C-0.0407225 8.38426 0.274171 8.02209 0.769004 7.841C1.21885 7.70518 1.6687 7.5241 2.07356 7.34301C3.01824 6.93556 3.96292 6.52812 4.9076 6.12067C5.76232 5.7585 6.61703 5.35105 7.42675 4.98888C8.01156 4.71725 8.59636 4.49089 9.18116 4.21926C10.1708 3.76654 11.1605 3.26856 12.1951 2.81584C12.645 2.58948 13.1398 2.49894 13.6347 2.31785C14.4894 1.95568 15.3441 1.50296 16.1988 1.09551C17.0085 0.73334 17.8182 0.325894 18.673 0.00899231C18.8079 -0.0362794 19.0778 0.0995357 19.3027 0.190079C20.9222 0.959698 22.5416 1.72932 24.1611 2.49894C25.1058 2.95165 26.0505 3.31383 26.9951 3.81182C28.1647 4.40035 29.2894 4.98888 30.459 5.57741C31.4486 6.0754 32.4383 6.52812 33.383 6.98083C33.9228 7.25247 34.4626 7.5241 35.0024 7.79573C35.0924 7.841 35.1824 7.88627 35.2723 7.88627C35.9021 8.02209 36.0371 8.20317 35.9921 8.83698C35.9921 10.1499 35.9921 11.4175 35.9471 12.7303C35.9021 14.4507 35.8122 16.2163 35.7222 17.9366C35.6322 19.7022 35.5422 21.5131 35.4523 23.2787C35.3623 24.8632 35.3173 26.4929 35.2723 28.168C29.6043 30.7485 23.8912 33.329 18.0881 36C18.1331 35.4567 18.1781 35.004 18.2231 34.5513C18.2231 34.4155 18.2681 34.3249 18.2681 34.1891C18.3131 32.5594 18.403 30.8843 18.448 29.2545C18.493 27.4436 18.448 25.5875 18.493 23.7766C18.538 21.6941 18.628 19.5664 18.7179 17.4839C18.7179 17.3481 18.8529 17.167 18.9878 17.0764C19.5726 16.7143 20.2024 16.3521 20.8322 16.0352C21.7319 15.6277 22.6316 15.2656 23.5763 14.9034C23.6213 14.8581 23.6213 14.8128 23.6213 14.7223ZM14.3544 6.03013C14.8043 6.25649 15.1641 6.48285 15.569 6.66393C16.7836 7.29774 17.9982 7.88627 19.2128 8.52007C20.1574 8.97279 21.1471 9.42551 22.0918 9.87823C22.9915 10.3309 23.8462 10.8289 24.7459 11.2816C25.3757 11.5985 26.0055 11.8702 26.5903 12.1871C27.1301 12.504 27.5799 12.8662 28.2097 12.3682C28.3897 12.1871 28.6596 12.0965 28.8845 11.9607C29.8742 11.508 30.8638 11.0553 31.8985 10.5573C31.7635 10.3762 31.7185 10.2404 31.6286 10.1951C30.9988 9.87822 30.414 9.60659 29.7842 9.33496C28.7495 8.88225 27.7149 8.42953 26.7252 7.93154C26.0954 7.61464 25.5106 7.25247 24.8809 6.98083C24.0711 6.57339 23.2164 6.25649 22.4067 5.89431C21.417 5.39633 20.4274 4.85306 19.4377 4.35508C19.1228 4.21926 18.673 3.9929 18.403 4.08345C17.5933 4.40035 16.8736 4.85306 16.1088 5.26051C15.569 5.48687 15.0292 5.71323 14.3544 6.03013Z" fill="#BABABA"/>
</svg>
