<svg width="64" height="75" viewBox="0 0 64 75" fill="none" xmlns="http://www.w3.org/2000/svg">
<path d="M63.9 43.7C63.9 51 63.8 58.3 63.9 65.6C64 71 60.5 74.1 55.5 74C44.1 73.7 32.8 73.9 21.4 74C16.3 74.1 13.2 71.2 13.2 65.8C13.2 50.9 13.3 36 13.2 21.2C13.2 17.5 16.1 13.5 20.7 13.6C32.8 13.8 44.9 13.7 57 13.7C61 13.7 63.7 16.7 63.8 20.6C64.1 28.2 63.9 36 63.9 43.7ZM50.3 40.6C42.4 40.6 34.8 40.6 27.1 40.6C27.1 42.8 27.1 44.8 27.1 47C34.9 47 42.6 47 50.3 47C50.3 44.8 50.3 42.8 50.3 40.6ZM27 60.5C34.9 60.5 42.5 60.5 50.1 60.5C50.1 58.2 50.1 56.1 50.1 54C42.3 54 34.7 54 27 54C27 56.2 27 58.3 27 60.5ZM27 33.7C34.9 33.7 42.5 33.7 50.2 33.7C50.2 31.4 50.2 29.2 50.2 27.1C42.4 27.1 34.8 27.1 27 27.1C27 29.3 27 31.4 27 33.7Z" fill="white"/>
<path d="M6.7 6.6C6.7 22.4 6.7 37.9 6.7 53.6C4.5 53.6 2.4 53.6 0 53.6C0 49.7 0 45.8 0 41.9C0 30.4 0 18.8 0 7.3C0 3 2.9 0 7.2 0C19.7 0 32.2 0 44.7 0C46.5 0 47.2 0.5 47 2.4C46.9 3.7 47 5 47 6.7C33.6 6.6 20.2 6.6 6.7 6.6Z" fill="white"/>
</svg>
