<svg width="80" height="80" viewBox="0 0 80 80" fill="none" xmlns="http://www.w3.org/2000/svg">
<path d="M40.1 79.9001C31.4 79.9001 22.8 79.7001 14.1 80.0001C5.59996 80.1001 0.099962 74.4001 -3.80529e-05 66.3001C-0.100038 57.6001 0.499962 49.0001 1.49996 40.4001C1.89996 37.3001 3.59996 33.7001 5.89996 31.5001C10.4 27.0001 11.7 21.6001 12.6 15.8001C13.6 8.8001 18.3 3.9001 25.2 2.5001C29.2 1.7001 33.1 0.100098 37.1 0.100098C42.5 0.100098 48 1.2001 53.3 2.1001C57.4 2.8001 61 4.6001 63.9 7.6001C66.5 10.3001 68.5 13.3001 68.2 17.2001C67.8 22.7001 70.7 26.9001 74 30.8001C78.4 36.0001 80.2 42.0001 80 48.8001C79.9 54.7001 79.8 60.7001 80 66.6001C80.3 74.5001 73.4 80.1001 66.9 79.9001C58 79.6001 49 79.9001 40.1 79.9001ZM61.8 27.6001C56.9 28.8001 52.2 29.8001 47.6 31.1001C38.4 33.6001 29.7 31.6001 21.3 28.0001C19.7 27.3001 18.3 27.0001 17.2 29.2001C16.3 31.0001 14.7 32.5001 13.6 34.3001C10.7 38.7001 7.89996 42.9001 8.49996 48.7001C9.09996 54.6001 8.89996 60.6001 8.49996 66.5001C8.29996 70.3001 10.4 72.2001 14.3 72.2001C31.6 72.3001 49 72.3001 66.3 72.2001C69.6 72.2001 72.3 69.9001 72.4 66.6001C72.6 60.1001 72.7 53.5001 72.3 47.0001C72.1 44.2001 71 41.2001 69.6 38.7001C67.1 34.6001 64.1 30.9001 61.8 27.6001ZM39.2 24.4001C44.7 23.3001 49.3 22.7001 53.7 21.5001C55.7 20.9001 57.7 19.2001 59.1 17.6001C59.7 16.9001 59.3 14.1001 58.5 13.6001C56.6 12.4001 54.2 11.3001 52 11.3001C49.4 11.3001 46.5 13.1001 44.4 10.5001C42.9 8.6001 37.4 7.5001 36.4 9.6001C34.4 13.6001 31.3 11.8001 28.7 11.4001C26.3 11.1001 22.1 12.4001 21.1 14.8001C19.9 17.8001 22.3 19.5001 24.3 20.2001C29.3 21.9001 34.7 23.1001 39.2 24.4001Z" fill="white"/>
<path d="M34.2 57.3002C35.4 59.4002 36 61.2002 37.3 62.2002C39.5 64.1002 42 63.4002 43.4 61.2002C44.6 59.4002 45.2 57.0002 42.2 55.7002C40.2 54.9002 38.3 53.9002 36.3 53.1002C32.6 51.6002 30 47.0002 30.7 42.6002C31.2 39.4002 34.6 36.7002 38.6 36.5002C42.9 36.2002 47.3 36.1002 49.5 40.9002C50 42.0002 49.5 43.7002 49.5 45.1002C47.7 44.8002 45.3 45.1002 44.3 44.1002C42.8 42.5002 41.8 40.2002 39.2 40.8002C38.2 41.1002 36.9 42.5002 36.7 43.6002C36.2 46.4002 38 48.0002 40.5 49.2002C43.3 50.5002 46.4 51.8002 48.2 54.1002C53.1 60.2002 48.7 66.8002 41.9 68.0002C37.2 68.8002 32.1 66.6002 30.6 63.3002C30 61.8002 29.9 60.0002 29.6 58.4002C31.3 57.9002 33 57.6002 34.2 57.3002Z" fill="white"/>
<path d="M35.8999 18.2002C38.3999 15.1002 41.0999 15.0002 43.9999 18.0002C40.6999 21.2002 39.7999 21.2002 35.8999 18.2002Z" fill="white"/>
</svg>
