<svg width="50" height="50" viewBox="0 0 50 50" fill="none" xmlns="http://www.w3.org/2000/svg">
<path d="M32.4199 20.804C31.7424 20.496 31.1265 20.1881 30.449 19.8801C28.9091 19.141 27.3693 18.4634 25.8911 17.7243C23.9817 16.8004 22.1339 15.8765 20.2245 14.9526C18.1303 13.9671 16.0361 13.0432 14.0036 12.0577C13.8188 11.9961 13.634 11.9346 13.4492 11.9961C12.8333 12.2425 12.1558 12.5505 11.5398 12.8584C11.1087 13.0432 10.6775 13.228 10.308 13.4128C9.26087 13.9055 8.21379 14.4599 7.1667 14.9526V15.0142C9.50725 16.2461 11.8478 17.4164 14.2499 18.6482C16.5289 19.8185 18.8694 20.9888 21.1484 22.0974C21.7643 22.4054 22.4418 22.7134 23.0578 23.0213C23.2425 23.1445 23.4889 23.3909 23.4889 23.5757C23.4889 25.6699 23.4889 27.8256 23.4889 29.9198C23.4273 33.369 23.3041 36.8182 23.2425 40.2675C23.181 43.1624 23.0578 46.1188 22.9346 49.0137C22.9346 49.3217 22.873 49.6297 22.4418 49.4449C20.9636 48.7058 19.547 47.9666 18.0687 47.2891C16.7753 46.6732 15.4202 46.1188 14.1267 45.4413C12.5253 44.6406 10.9239 43.7783 9.32246 42.9776C7.35148 42.0537 5.3189 41.1298 3.34792 40.2059C2.5472 40.0211 1.93127 39.7747 1.37693 39.4052C1.13056 39.2204 0.945779 38.8508 0.945779 38.6045C0.884185 37.3726 0.945779 36.1407 0.884185 34.9089C0.822592 31.8908 0.760999 28.8727 0.637812 25.8546C0.637812 25.0539 0.637812 24.3148 0.576219 23.5141C0.514626 21.112 0.453032 18.7098 0.329846 16.3077C0.268253 15.199 0.145066 14.0903 0.0834727 12.92C0.0218794 12.1809 0.453032 11.6882 1.13056 11.4418C1.74649 11.257 2.36242 11.0107 2.91676 10.7643C4.21022 10.2099 5.50368 9.6556 6.79714 9.10126C7.96741 8.60851 9.13769 8.05417 10.2464 7.56142C11.0471 7.19186 11.8478 6.8839 12.6485 6.51434C14.0036 5.89841 15.3586 5.22088 16.7753 4.60495C17.3912 4.29698 18.0687 4.17379 18.7462 3.92742C19.9165 3.43467 21.0868 2.81874 22.2571 2.2644C23.3657 1.77165 24.4744 1.21731 25.6447 0.78616C25.8295 0.724567 26.199 0.909347 26.507 1.03253C28.7243 2.07962 30.9417 3.12671 33.1591 4.17379C34.4525 4.78973 35.746 5.28247 37.0394 5.96C38.6409 6.76071 40.1807 7.56142 41.7821 8.36214C43.1372 9.03966 44.4922 9.6556 45.7857 10.2715C46.5248 10.6411 47.2639 11.0107 48.003 11.3802C48.1262 11.4418 48.2494 11.5034 48.3726 11.5034C49.2349 11.6882 49.4197 11.9345 49.3581 12.7969C49.3581 14.5831 49.3581 16.3077 49.2965 18.0939C49.2349 20.4344 49.1117 22.8366 48.9885 25.1771C48.8654 27.5793 48.7422 30.043 48.619 32.4451C48.4958 34.6009 48.4342 36.8182 48.3726 39.0972C40.6119 42.608 32.7895 46.1188 24.844 49.7528C24.9056 49.0137 24.9672 48.3978 25.0288 47.7819C25.0288 47.5971 25.0903 47.4739 25.0903 47.2891C25.1519 45.0718 25.2751 42.7928 25.3367 40.5754C25.3983 38.1117 25.3367 35.5864 25.3983 33.1227C25.4599 30.2894 25.5831 27.3945 25.7063 24.5612C25.7063 24.3764 25.8911 24.13 26.0758 24.0068C26.8766 23.5141 27.7389 23.0213 28.6012 22.5902C29.833 22.0359 31.0649 21.5431 32.3584 21.0504C32.4199 20.9888 32.4199 20.9272 32.4199 20.804ZM19.7317 8.97807C20.3477 9.28604 20.8404 9.594 21.3947 9.84038C23.0578 10.7027 24.7208 11.5034 26.3838 12.3657C27.6773 12.9816 29.0323 13.5976 30.3258 14.2135C31.5576 14.8294 32.7279 15.507 33.9598 16.1229C34.8221 16.554 35.6844 16.9236 36.4851 17.3548C37.2242 17.7859 37.8402 18.2787 38.7025 17.6011C38.9488 17.3548 39.3184 17.2316 39.6264 17.0468C40.9814 16.4309 42.3365 15.8149 43.7531 15.1374C43.5683 14.891 43.5067 14.7062 43.3836 14.6447C42.5212 14.2135 41.7205 13.8439 40.8582 13.4744C39.4416 12.8584 38.0249 12.2425 36.6699 11.565C35.8076 11.1338 35.0069 10.6411 34.1446 10.2715C33.0359 9.71719 31.8656 9.28604 30.7569 8.79329C29.4019 8.11576 28.0468 7.37664 26.6918 6.69912C26.2606 6.51434 25.6447 6.20637 25.2751 6.32956C24.1664 6.76071 23.181 7.37664 22.1339 7.93098C21.3947 8.23895 20.6556 8.54692 19.7317 8.97807Z" fill="white"/>
</svg>
