<svg width="40" height="47" viewBox="0 0 40 47" fill="none" xmlns="http://www.w3.org/2000/svg">
<path d="M39.3575 27.3896C39.3575 31.8859 39.2959 36.3822 39.3575 40.8785C39.4191 44.2046 37.2634 46.1139 34.1837 46.0523C27.1621 45.8676 20.202 45.9908 13.1804 46.0523C10.0392 46.1139 8.12976 44.3277 8.12976 41.0017C8.12976 31.8243 8.19135 22.6469 8.12976 13.5311C8.12976 11.2521 9.91596 8.78842 12.7493 8.85001C20.202 8.9732 27.6548 8.9116 35.1076 8.9116C37.5713 8.9116 39.2344 10.7594 39.2959 13.1615C39.4807 17.8426 39.3575 22.6469 39.3575 27.3896ZM30.9809 25.4802C26.115 25.4802 21.4339 25.4802 16.6912 25.4802C16.6912 26.8352 16.6912 28.0671 16.6912 29.4222C21.4955 29.4222 26.2382 29.4222 30.9809 29.4222C30.9809 28.0671 30.9809 26.8352 30.9809 25.4802ZM16.6296 37.7373C21.4955 37.7373 26.1766 37.7373 30.8577 37.7373C30.8577 36.3206 30.8577 35.0272 30.8577 33.7337C26.0534 33.7337 21.3723 33.7337 16.6296 33.7337C16.6296 35.0887 16.6296 36.3822 16.6296 37.7373ZM16.6296 21.2303C21.4955 21.2303 26.1766 21.2303 30.9193 21.2303C30.9193 19.8136 30.9193 18.4586 30.9193 17.1651C26.115 17.1651 21.4339 17.1651 16.6296 17.1651C16.6296 18.5202 16.6296 19.8136 16.6296 21.2303Z" fill="white"/>
<path d="M4.12675 4.53391C4.12675 14.2657 4.12675 23.8126 4.12675 33.4828C2.7717 33.4828 1.47824 33.4828 0 33.4828C0 31.0806 0 28.6785 0 26.2763C0 19.1931 0 12.0483 0 4.96506C0 2.31655 1.78621 0.46875 4.43472 0.46875C12.1339 0.46875 19.8331 0.46875 27.5322 0.46875C28.6409 0.46875 29.0721 0.776717 28.9489 1.94699C28.8873 2.7477 28.9489 3.54842 28.9489 4.5955C20.6954 4.53391 12.4419 4.53391 4.12675 4.53391Z" fill="white"/>
</svg>
