<svg width="43" height="43" viewBox="0 0 43 43" fill="none" xmlns="http://www.w3.org/2000/svg">
<path d="M18.2392 5.35174C19.779 3.62712 22.6739 3.68872 24.2754 5.35174C25.2608 4.48943 26.2463 3.56553 27.2318 2.70322C28.1557 1.90251 29.1412 1.0402 30.3731 0.670644C31.4202 0.301084 32.3441 0.485864 33.3912 0.793831C35.0542 1.28658 36.2245 2.33366 36.7788 3.8735C37.3331 5.22855 37.3947 6.70679 36.6556 8.12344C36.594 8.24662 36.594 8.36981 36.594 8.61618C37.4563 8.61618 38.257 8.61618 38.9962 8.61618C40.3512 8.67778 41.4599 9.04734 41.9526 10.4024C42.0758 10.7719 42.1374 11.1415 42.1374 11.5727C42.199 12.7429 42.199 13.9748 42.1374 15.1451C42.1374 16.6233 41.4599 16.8697 40.1048 16.8697C38.0107 16.9313 35.9165 16.8697 33.8223 16.8697C32.3441 16.8697 30.8042 16.8081 29.326 16.8081C27.4166 16.8081 25.5072 16.8081 23.5978 16.8081C21.8116 16.8081 19.9638 16.8081 18.1776 16.8081C15.3443 16.8081 12.4494 16.8081 9.61614 16.8081C7.09082 16.8081 4.62708 16.8081 2.10176 16.8081C1.7322 16.8081 1.36264 16.7465 0.993078 16.5617C0.315552 16.3153 0.315552 15.6994 0.315552 15.0835C0.315552 13.7284 0.377145 12.3734 0.315552 11.0183C0.315552 10.2176 0.808298 9.72486 1.36264 9.23211C2.34813 8.30822 3.58 8.67778 4.68868 8.55459C5.05824 8.55459 5.4278 8.55459 5.85895 8.55459C5.73576 8.18503 5.61258 7.87706 5.55098 7.5075C5.4278 6.89157 5.3662 6.27564 5.30461 5.6597C5.24302 3.8119 6.10532 2.45685 7.64516 1.40976C8.44587 0.855424 9.36977 0.609051 10.2937 0.424271C10.9096 0.301084 11.5871 0.547458 12.2031 0.732238C14.0509 1.28658 15.2211 2.82641 16.5762 4.05828C17.1921 4.48943 17.7465 4.92058 18.2392 5.35174ZM25.2608 8.36981C25.3224 8.4314 25.3224 8.493 25.384 8.55459C25.5688 8.55459 25.8152 8.61618 26 8.61618C27.7862 8.61618 29.5108 8.61618 31.297 8.61618C31.9129 8.61618 32.5289 8.67778 33.0216 8.30822C33.6375 7.87706 34.2535 7.32272 34.3767 6.52201C34.4998 5.59811 34.3767 4.7974 33.6991 4.05828C32.96 3.25756 31.2354 2.9496 30.3731 3.62712C29.634 4.24306 28.8949 4.92058 28.2173 5.53652C27.6014 6.09086 26.9239 6.5836 26.3079 7.19954C25.9384 7.5075 25.6304 7.93866 25.2608 8.36981ZM17.1921 8.55459C17.1305 8.30822 17.0689 8.12344 17.0073 8.00025C16.5146 7.5075 16.0834 7.01476 15.5907 6.5836C14.6668 5.7213 13.6813 4.85899 12.6958 3.99668C12.3263 3.68872 11.8335 3.31916 11.4024 3.25756C10.4169 3.07278 9.49296 3.31916 8.75384 4.11987C7.95312 5.04377 7.89153 6.02926 8.32268 7.13794C8.56906 7.75388 9.73933 8.55459 10.4784 8.55459C11.8335 8.55459 13.2502 8.55459 14.6052 8.55459C15.4059 8.55459 16.2682 8.55459 17.1921 8.55459Z" fill="white"/>
<path d="M39.4273 19.5183C39.4273 19.8263 39.4273 20.0111 39.4273 20.1958C39.4273 26.6015 39.4273 33.0073 39.4273 39.413C39.4273 40.768 38.6266 41.6303 37.3331 42.0615C36.1628 42.4926 34.9926 42.2463 33.8223 42.2463C30.8042 42.3079 27.7861 42.2463 24.7681 42.2463C24.0289 42.2463 23.9674 42.1231 23.9674 41.4455C23.9674 38.0579 23.9674 34.6703 23.9674 31.2826C23.9674 28.0798 23.9674 24.8153 23.9058 21.6125C23.9058 21.1197 23.9674 20.627 23.9058 20.1342C23.9058 19.6415 24.0905 19.5183 24.5217 19.5183C26.3079 19.5183 28.0941 19.5183 29.8803 19.5183C32.8368 19.5183 35.7933 19.5183 38.7498 19.5183C38.9961 19.5183 39.1809 19.5183 39.4273 19.5183Z" fill="white"/>
<path d="M3.02563 19.5799C3.27201 19.5799 3.45679 19.5183 3.70316 19.5183C8.44585 19.5183 13.1269 19.5183 17.8696 19.5183C18.4856 19.5183 18.6088 19.7031 18.6088 20.2574C18.6088 25.924 18.6088 31.6522 18.6088 37.3188C18.6088 38.7354 18.6088 40.0905 18.6088 41.5071C18.6088 42.1846 18.4856 42.3078 17.808 42.3078C13.8661 42.3078 9.92409 42.3078 6.04371 42.3078C4.44228 42.3078 3.02563 40.9528 3.02563 39.2898C3.08723 32.9456 3.02563 26.6015 3.02563 20.2574C3.02563 20.0111 3.02563 19.8263 3.02563 19.5799Z" fill="white"/>
</svg>
