<svg width="10" height="18" viewBox="0 0 10 18" fill="none" xmlns="http://www.w3.org/2000/svg">
<path d="M5.27309 8.18894C3.43346 7.64249 2.84185 7.07751 2.84185 6.19764C2.84185 5.1881 3.66037 4.48419 5.02997 4.48419C6.4725 4.48419 7.00737 5.27145 7.056 6.42918H8.84701C8.79028 4.83615 7.93935 3.37277 6.24559 2.90042V0.87207H3.81435V2.87263C2.24215 3.26163 0.977905 4.42862 0.977905 6.21616C0.977905 8.35565 2.52579 9.42076 4.78684 10.0413C6.81288 10.597 7.21808 11.4121 7.21808 12.2734C7.21808 12.9125 6.82098 13.9313 5.02997 13.9313C3.36052 13.9313 2.70408 13.0792 2.61494 11.9863H0.832031C0.929281 14.0146 2.25836 15.1539 3.81435 15.5336V17.5434H6.24559V15.5521C7.82589 15.2094 9.08203 14.1628 9.08203 12.2642C9.08203 9.63379 7.11273 8.73539 5.27309 8.18894Z" fill="#FFFDFD"/>
</svg>
